<svg width="51" height="50" viewBox="0 0 51 50" fill="none" xmlns="http://www.w3.org/2000/svg">
<path fill-rule="evenodd" clip-rule="evenodd" d="M14.9137 0H15.4186C19.5963 0 23.0146 3.45367 23.0146 7.68014V23.2543H7.32227V7.68014C7.32227 3.45367 10.7404 0 14.9137 0Z" fill="#435317"/>
<path fill-rule="evenodd" clip-rule="evenodd" d="M0 15.9198V15.4349C0 11.401 3.2581 8.10156 7.24682 8.10156L23.0154 23.2531H7.24682C3.25827 23.2531 0 19.9535 0 15.9198Z" fill="#50651D"/>
<path fill-rule="evenodd" clip-rule="evenodd" d="M36.0852 0H35.5802C31.4025 0 27.9844 3.45367 27.9844 7.68014V23.2543H43.6767V7.68014C43.6767 3.45367 40.2587 0 36.0852 0Z" fill="#A3BF60"/>
<path fill-rule="evenodd" clip-rule="evenodd" d="M50.9998 15.9198V15.4349C50.9998 11.401 47.7415 8.10156 43.7528 8.10156L27.9844 23.2531H43.7528C47.7415 23.2531 50.9998 19.9535 50.9998 15.9198Z" fill="#98B752"/>
<path fill-rule="evenodd" clip-rule="evenodd" d="M14.9137 50.0009H15.4186C19.5963 50.0009 23.0146 46.5527 23.0146 42.3426V26.8125H7.32227V42.3426C7.32227 46.5527 10.7404 50.0009 14.9137 50.0009Z" fill="#6D8A2B"/>
<path fill-rule="evenodd" clip-rule="evenodd" d="M0 34.1117V34.5992C0 38.612 3.2581 41.8981 7.24682 41.8981L23.0154 26.8125H7.24682C3.25827 26.8125 0 30.0986 0 34.1117Z" fill="#5E7824"/>
<path fill-rule="evenodd" clip-rule="evenodd" d="M36.0852 50.0009H35.5802C31.4025 50.0009 27.9844 46.5527 27.9844 42.3426V26.8125H43.6767V42.3426C43.6767 46.5527 40.2587 50.0009 36.0852 50.0009Z" fill="#7C9C32"/>
<path fill-rule="evenodd" clip-rule="evenodd" d="M50.9998 34.1117V34.5992C50.9998 38.612 47.7415 41.8981 43.7528 41.8981L27.9844 26.8125H43.7528C47.7415 26.8125 50.9998 30.0986 50.9998 34.1117Z" fill="#8CAD44"/>
</svg>
