<svg width="215" height="40" viewBox="0 0 215 40" fill="none" xmlns="http://www.w3.org/2000/svg">
<path fill-rule="evenodd" clip-rule="evenodd" d="M11.9896 0H12.3956C15.7541 0 18.5021 2.76293 18.5021 6.14411V18.6034H5.88672V6.14411C5.88672 2.76293 8.63462 0 11.9896 0Z" fill="#E9E9E9"/>
<path fill-rule="evenodd" clip-rule="evenodd" d="M0 12.735V12.3471C0 9.11998 2.61925 6.48047 5.82587 6.48047L18.5026 18.6017H5.82587C2.61939 18.6017 0 15.962 0 12.735Z" fill="white"/>
<path fill-rule="evenodd" clip-rule="evenodd" d="M29.0104 0H28.6045C25.246 0 22.498 2.76293 22.498 6.14411V18.6034H35.1134V6.14411C35.1134 2.76293 32.3656 0 29.0104 0Z" fill="#E9E9E9"/>
<path fill-rule="evenodd" clip-rule="evenodd" d="M41.0006 12.735V12.3471C41.0006 9.11998 38.3812 6.48047 35.1746 6.48047L22.498 18.6017H35.1746C38.3812 18.6017 41.0006 15.962 41.0006 12.735Z" fill="white"/>
<path fill-rule="evenodd" clip-rule="evenodd" d="M11.9896 39.9999H12.3956C15.7541 39.9999 18.5021 37.2414 18.5021 33.8733V21.4492H5.88672V33.8733C5.88672 37.2414 8.63462 39.9999 11.9896 39.9999Z" fill="#E9E9E9"/>
<path fill-rule="evenodd" clip-rule="evenodd" d="M0 27.2885V27.6785C0 30.8888 2.61925 33.5177 5.82587 33.5177L18.5026 21.4492H5.82587C2.61939 21.4492 0 24.0781 0 27.2885Z" fill="white"/>
<path fill-rule="evenodd" clip-rule="evenodd" d="M29.0104 39.9999H28.6045C25.246 39.9999 22.498 37.2414 22.498 33.8733V21.4492H35.1134V33.8733C35.1134 37.2414 32.3656 39.9999 29.0104 39.9999Z" fill="#E9E9E9"/>
<path fill-rule="evenodd" clip-rule="evenodd" d="M41.0006 27.2885V27.6785C41.0006 30.8888 38.3812 33.5177 35.1746 33.5177L22.498 21.4492H35.1746C38.3812 21.4492 41.0006 24.0781 41.0006 27.2885Z" fill="white"/>
<path d="M48.82 12.126H52.876V29H48.82V12.126ZM52.98 20.056L59.298 12.126H64.056L57.66 19.978L64.758 29H59.818L52.98 20.056ZM72.7047 29.26C68.25 29.26 66.0227 27.8993 66.0227 25.178V20.654C66.0227 19.0767 66.5253 17.9327 67.5307 17.222C68.5533 16.5113 70.122 16.156 72.2367 16.156C74.23 16.156 75.686 16.5027 76.6047 17.196C77.5407 17.872 78.0087 19.0247 78.0087 20.654V23.722H69.8447V24.866C69.8447 25.594 70.1047 26.114 70.6247 26.426C71.1447 26.738 72.0807 26.894 73.4327 26.894C74.6807 26.894 76.0847 26.712 77.6447 26.348V28.766C76.102 29.0953 74.4553 29.26 72.7047 29.26ZM74.3947 21.564V19.744C74.3947 19.328 74.2213 19.016 73.8747 18.808C73.5453 18.6 72.982 18.496 72.1847 18.496C71.266 18.496 70.6507 18.6 70.3387 18.808C70.0093 19.0333 69.8447 19.3453 69.8447 19.744V21.564H74.3947ZM80.9101 16.416H84.5241V18.626C84.5241 18.2273 84.6888 17.8373 85.0181 17.456C85.3474 17.0747 85.7634 16.7627 86.2661 16.52C86.7861 16.2773 87.2974 16.156 87.8001 16.156H89.1521V19.302H87.8521C86.7774 19.302 85.9801 19.4667 85.4601 19.796C84.9574 20.1253 84.7061 20.6713 84.7061 21.434V29H80.9101V16.416ZM94.8061 29.26C93.6274 29.26 92.7434 29.156 92.1541 28.948C91.5821 28.7227 91.1747 28.3327 90.9321 27.778C90.7067 27.206 90.5941 26.3567 90.5941 25.23C90.5941 24.2247 90.7154 23.436 90.9581 22.864C91.2181 22.292 91.6254 21.8847 92.1801 21.642C92.7521 21.382 93.5321 21.252 94.5201 21.252H98.7841V20.394C98.7841 19.8567 98.7061 19.458 98.5501 19.198C98.4114 18.938 98.1427 18.756 97.7441 18.652C97.3627 18.548 96.7821 18.496 96.0021 18.496C94.9274 18.496 93.4541 18.6 91.5821 18.808V16.416C92.9514 16.2427 94.5547 16.156 96.3921 16.156C98.0041 16.156 99.2434 16.2773 100.11 16.52C100.994 16.7627 101.627 17.1787 102.008 17.768C102.389 18.3573 102.58 19.2153 102.58 20.342V29H98.8621V27.856C98.5674 28.3587 98.1687 28.714 97.6661 28.922C97.1634 29.1473 96.2101 29.26 94.8061 29.26ZM96.2881 26.894C97.0507 26.894 97.5967 26.868 97.9261 26.816C98.1687 26.7813 98.3334 26.7293 98.4201 26.66C98.5241 26.5907 98.6107 26.478 98.6801 26.322C98.7494 26.2007 98.7841 26.0187 98.7841 25.776V23.332H96.1841C95.5947 23.332 95.1787 23.3753 94.9361 23.462C94.6934 23.5313 94.5287 23.6873 94.4421 23.93C94.3554 24.1553 94.3121 24.5627 94.3121 25.152C94.3121 25.724 94.3554 26.1227 94.4421 26.348C94.5287 26.5733 94.6934 26.7207 94.9361 26.79C95.1961 26.8593 95.6467 26.894 96.2881 26.894ZM106.024 10.8H109.82V29H106.024V10.8ZM116.82 29.26C115.641 29.26 114.757 29.156 114.168 28.948C113.596 28.7227 113.188 28.3327 112.946 27.778C112.72 27.206 112.608 26.3567 112.608 25.23C112.608 24.2247 112.729 23.436 112.972 22.864C113.232 22.292 113.639 21.8847 114.194 21.642C114.766 21.382 115.546 21.252 116.534 21.252H120.798V20.394C120.798 19.8567 120.72 19.458 120.564 19.198C120.425 18.938 120.156 18.756 119.758 18.652C119.376 18.548 118.796 18.496 118.016 18.496C116.941 18.496 115.468 18.6 113.596 18.808V16.416C114.965 16.2427 116.568 16.156 118.406 16.156C120.018 16.156 121.257 16.2773 122.124 16.52C123.008 16.7627 123.64 17.1787 124.022 17.768C124.403 18.3573 124.594 19.2153 124.594 20.342V29H120.876V27.856C120.581 28.3587 120.182 28.714 119.68 28.922C119.177 29.1473 118.224 29.26 116.82 29.26ZM118.302 26.894C119.064 26.894 119.61 26.868 119.94 26.816C120.182 26.7813 120.347 26.7293 120.434 26.66C120.538 26.5907 120.624 26.478 120.694 26.322C120.763 26.2007 120.798 26.0187 120.798 25.776V23.332H118.198C117.608 23.332 117.192 23.3753 116.95 23.462C116.707 23.5313 116.542 23.6873 116.456 23.93C116.369 24.1553 116.326 24.5627 116.326 25.152C116.326 25.724 116.369 26.1227 116.456 26.348C116.542 26.5733 116.707 26.7207 116.95 26.79C117.21 26.8593 117.66 26.894 118.302 26.894ZM127.57 25.412H131.626V29H127.57V25.412ZM134.742 12.126H138.798V18.886H145.974V12.126H150.03V29H145.974V21.772H138.798V29H134.742V12.126ZM159.82 29.26C155.365 29.26 153.138 27.8993 153.138 25.178V20.654C153.138 19.0767 153.641 17.9327 154.646 17.222C155.669 16.5113 157.237 16.156 159.352 16.156C161.345 16.156 162.801 16.5027 163.72 17.196C164.656 17.872 165.124 19.0247 165.124 20.654V23.722H156.96V24.866C156.96 25.594 157.22 26.114 157.74 26.426C158.26 26.738 159.196 26.894 160.548 26.894C161.796 26.894 163.2 26.712 164.76 26.348V28.766C163.217 29.0953 161.571 29.26 159.82 29.26ZM161.51 21.564V19.744C161.51 19.328 161.337 19.016 160.99 18.808C160.661 18.6 160.097 18.496 159.3 18.496C158.381 18.496 157.766 18.6 157.454 18.808C157.125 19.0333 156.96 19.3453 156.96 19.744V21.564H161.51ZM171.587 29.26C170.409 29.26 169.525 29.156 168.935 28.948C168.363 28.7227 167.956 28.3327 167.713 27.778C167.488 27.206 167.375 26.3567 167.375 25.23C167.375 24.2247 167.497 23.436 167.739 22.864C167.999 22.292 168.407 21.8847 168.961 21.642C169.533 21.382 170.313 21.252 171.301 21.252H175.565V20.394C175.565 19.8567 175.487 19.458 175.331 19.198C175.193 18.938 174.924 18.756 174.525 18.652C174.144 18.548 173.563 18.496 172.783 18.496C171.709 18.496 170.235 18.6 168.363 18.808V16.416C169.733 16.2427 171.336 16.156 173.173 16.156C174.785 16.156 176.025 16.2773 176.891 16.52C177.775 16.7627 178.408 17.1787 178.789 17.768C179.171 18.3573 179.361 19.2153 179.361 20.342V29H175.643V27.856C175.349 28.3587 174.95 28.714 174.447 28.922C173.945 29.1473 172.991 29.26 171.587 29.26ZM173.069 26.894C173.832 26.894 174.378 26.868 174.707 26.816C174.95 26.7813 175.115 26.7293 175.201 26.66C175.305 26.5907 175.392 26.478 175.461 26.322C175.531 26.2007 175.565 26.0187 175.565 25.776V23.332H172.965C172.376 23.332 171.96 23.3753 171.717 23.462C171.475 23.5313 171.31 23.6873 171.223 23.93C171.137 24.1553 171.093 24.5627 171.093 25.152C171.093 25.724 171.137 26.1227 171.223 26.348C171.31 26.5733 171.475 26.7207 171.717 26.79C171.977 26.8593 172.428 26.894 173.069 26.894ZM182.805 10.8H186.601V29H182.805V10.8ZM196.331 29.26C195.69 29.26 195.152 29.234 194.719 29.182C194.286 29.13 193.852 29.026 193.419 28.87C192.934 28.714 192.535 28.4973 192.223 28.22C191.928 27.9427 191.686 27.5613 191.495 27.076C191.287 26.5733 191.183 25.9927 191.183 25.334V18.756H188.635V16.416H191.183V12.776H194.979V16.416H198.437V18.756H194.979V24.684C194.979 25.2907 195.031 25.75 195.135 26.062C195.239 26.3567 195.438 26.5733 195.733 26.712C196.028 26.8333 196.478 26.894 197.085 26.894C197.328 26.894 197.778 26.8507 198.437 26.764V29.13C197.622 29.2167 196.92 29.26 196.331 29.26ZM200.627 10.8H204.423V17.95C204.666 16.754 205.992 16.156 208.401 16.156C210.013 16.156 211.14 16.4507 211.781 17.04C212.44 17.612 212.769 18.522 212.769 19.77V29H208.973V20.212C208.973 19.7267 208.921 19.3713 208.817 19.146C208.73 18.9033 208.548 18.7387 208.271 18.652C207.994 18.548 207.552 18.496 206.945 18.496C206.2 18.496 205.654 18.5393 205.307 18.626C204.96 18.7127 204.726 18.8773 204.605 19.12C204.484 19.3453 204.423 19.7093 204.423 20.212V29H200.627V10.8Z" fill="white"/>
</svg>
