<svg width="24" height="24" viewBox="0 0 24 24" fill="none" xmlns="http://www.w3.org/2000/svg">
<path d="M12 9H3C2.46978 9.00069 1.96147 9.21162 1.58655 9.58655C1.21162 9.96147 1.00069 10.4698 1 11V20C1.00069 20.5302 1.21162 21.0385 1.58655 21.4135C1.96147 21.7884 2.46978 21.9993 3 22H12C12.5302 21.9993 13.0385 21.7884 13.4135 21.4135C13.7884 21.0385 13.9993 20.5302 14 20V11C13.9993 10.4698 13.7884 9.96147 13.4135 9.58655C13.0385 9.21162 12.5302 9.00069 12 9ZM13 20C12.9998 20.2652 12.8944 20.5194 12.7069 20.7069C12.5194 20.8944 12.2652 20.9998 12 21H3C2.73484 20.9998 2.48059 20.8944 2.29309 20.7069C2.10559 20.5194 2.00018 20.2652 2 20V11C2.00018 10.7348 2.10559 10.4806 2.29309 10.2931C2.48059 10.1056 2.73484 10.0002 3 10H12C12.2652 10.0002 12.5194 10.1056 12.7069 10.2931C12.8944 10.4806 12.9998 10.7348 13 11V20Z" fill="black"/>
<path d="M21 2H12C11.4698 2.00069 10.9615 2.21162 10.5865 2.58655C10.2116 2.96147 10.0007 3.46978 10 4V7.5C10 7.63261 10.0527 7.75979 10.1464 7.85355C10.2402 7.94732 10.3674 8 10.5 8C10.6326 8 10.7598 7.94732 10.8536 7.85355C10.9473 7.75979 11 7.63261 11 7.5V4C11.0002 3.73484 11.1056 3.48059 11.2931 3.29309C11.4806 3.10559 11.7348 3.00018 12 3H21C21.2652 3.00018 21.5194 3.10559 21.7069 3.29309C21.8944 3.48059 21.9998 3.73484 22 4V13C21.9998 13.2652 21.8944 13.5194 21.7069 13.7069C21.5194 13.8944 21.2652 13.9998 21 14H15.5C15.3674 14 15.2402 14.0527 15.1464 14.1464C15.0527 14.2402 15 14.3674 15 14.5C15 14.6326 15.0527 14.7598 15.1464 14.8536C15.2402 14.9473 15.3674 15 15.5 15H21C21.5302 14.9993 22.0385 14.7884 22.4135 14.4135C22.7884 14.0385 22.9993 13.5302 23 13V4C22.9993 3.46978 22.7884 2.96147 22.4135 2.58655C22.0385 2.21162 21.5302 2.00069 21 2Z" fill="black"/>
<path d="M15.4749 11.1581L16.0275 9.49993H17.9731L18.5257 11.1581C18.5591 11.2576 18.6229 11.344 18.708 11.4053C18.7932 11.4666 18.8954 11.4997 19.0003 11.4999C19.054 11.5001 19.1075 11.4915 19.1585 11.4745C19.2842 11.4323 19.3881 11.3421 19.4474 11.2235C19.5067 11.1049 19.5166 10.9676 19.4749 10.8417L17.4749 4.84173C17.4336 4.75049 17.3668 4.67309 17.2827 4.6188C17.1985 4.56452 17.1004 4.53564 17.0003 4.53564C16.9001 4.53564 16.8021 4.56452 16.7179 4.6188C16.6337 4.67309 16.567 4.75049 16.5257 4.84173L14.5257 10.8417C14.4837 10.9676 14.4935 11.105 14.5528 11.2237C14.6122 11.3423 14.7162 11.4326 14.8421 11.4745C14.968 11.5165 15.1053 11.5067 15.224 11.4474C15.3427 11.3881 15.4329 11.284 15.4749 11.1581ZM17.0003 6.58098L17.6398 8.49993H16.3608L17.0003 6.58098Z" fill="black"/>
<path d="M6.894 12.048C7.47333 12.048 7.96833 12.1177 8.379 12.257C8.797 12.389 9.14167 12.5833 9.413 12.84C9.61833 13.0233 9.78333 13.2323 9.908 13.467C10.04 13.7017 10.1353 13.973 10.194 14.281C10.26 14.589 10.293 14.9447 10.293 15.348V18.274H3.66V15.326C3.66 14.9447 3.68933 14.6037 3.748 14.303C3.814 13.995 3.90933 13.7237 4.034 13.489C4.166 13.247 4.32733 13.0343 4.518 12.851C4.78933 12.5943 5.11567 12.3963 5.497 12.257C5.88567 12.1177 6.35133 12.048 6.894 12.048ZM6.377 12.829C6.069 12.829 5.79767 12.906 5.563 13.06C5.32833 13.214 5.13767 13.4193 4.991 13.676C4.87367 13.8813 4.77833 14.1343 4.705 14.435C4.639 14.7283 4.606 15.095 4.606 15.535V17.526H4.661C5.15967 17.152 5.60333 16.7597 5.992 16.349C6.38067 15.9383 6.685 15.5203 6.905 15.095C7.13233 14.6697 7.246 14.2553 7.246 13.852C7.246 13.6467 7.213 13.4707 7.147 13.324C7.08833 13.17 6.99667 13.049 6.872 12.961C6.74733 12.873 6.58233 12.829 6.377 12.829ZM8.192 13.951C8.192 14.3837 8.093 14.809 7.895 15.227C7.697 15.645 7.41467 16.0667 7.048 16.492C6.68133 16.91 6.245 17.339 5.739 17.779L5.717 17.559C5.92967 17.5443 6.13867 17.5333 6.344 17.526C6.54933 17.5113 6.75467 17.504 6.96 17.504H9.347V15.535C9.347 14.9923 9.292 14.5413 9.182 14.182C9.07933 13.8227 8.907 13.5367 8.665 13.324C8.423 13.104 8.104 12.9427 7.708 12.84L7.73 12.763C7.86933 12.9243 7.97933 13.0967 8.06 13.28C8.148 13.456 8.192 13.6797 8.192 13.951Z" fill="black"/>
</svg>
