<svg id="Layer_1" viewBox="0 0 512 512" xmlns="http://www.w3.org/2000/svg" data-name="Layer 1"><path d="m482.145 204.631c5.721-5.577 9.284-13.358 9.284-21.96 0-14.511-10.128-26.693-23.684-29.869v-58.214l6.01-1.61c7.259-1.945 12.137-8.301 12.137-15.816s-4.877-13.871-12.137-15.817l-207.187-55.517c-9.099-2.439-17.575-2.438-26.674 0l-207.187 55.515s0 0 0 0c-7.259 1.946-12.136 8.302-12.136 15.817s4.877 13.871 12.137 15.816l75.041 20.107v95.121c0 2.458 1.29 4.736 3.397 6.002 41.626 24.987 90.758 38.194 142.085 38.194s100.459-13.207 142.085-38.194c2.108-1.266 3.397-3.543 3.397-6.002v-95.12l55.031-14.746v54.463c-13.556 3.177-23.684 15.359-23.684 29.869 0 9.171 4.049 17.409 10.448 23.037l-3.535 7.597c-3.581 7.694-5.248 15.23-5.248 23.718v37.156c0 10.967 8.922 19.89 19.889 19.89h19.925c10.967 0 19.889-8.922 19.889-19.89v-37.156c0-8.488-1.667-16.025-5.248-23.718l-4.036-8.673zm-447.574-127.471c0-1.141.658-1.999 1.761-2.294l207.186-55.516c6.718-1.8 12.709-1.8 19.427 0l207.186 55.515c1.103.295 1.761 1.153 1.761 2.294s-.658 1.999-1.76 2.294l-9.995 2.678-199.684-18.051c-3.845-.337-7.254 2.491-7.602 6.341-.348 3.851 2.491 7.254 6.341 7.602l161.716 14.619-157.964 42.326c-6.717 1.8-12.708 1.8-19.427 0l-207.186-55.514c-1.103-.295-1.76-1.153-1.76-2.294zm218.66 161.24c-47.396 0-92.765-11.812-131.483-34.196v-26.647c39.262 21.082 84.449 32.18 131.483 32.18s92.221-11.098 131.482-32.18v26.647c-38.718 22.384-84.087 34.196-131.482 34.196zm131.482-76.863c-38.719 22.385-84.086 34.199-131.482 34.199s-92.763-11.815-131.483-34.199v-44.702l118.146 31.657c4.55 1.22 8.943 1.829 13.337 1.829s8.788-.61 13.336-1.829l118.146-31.657zm76.031 4.449c9.2 0 16.684 7.485 16.684 16.685s-7.484 16.684-16.684 16.684-16.684-7.484-16.684-16.684 7.484-16.685 16.684-16.685zm16.684 108.191c0 3.248-2.642 5.89-5.889 5.89h-19.925c-3.247 0-5.889-2.642-5.889-5.89v-37.156c0-6.461 1.215-11.954 3.941-17.812l3.204-6.884c2.514.668 5.152 1.029 7.874 1.029 3.256 0 6.393-.514 9.339-1.458l3.404 7.314c2.726 5.856 3.941 11.349 3.941 17.811zm-7.214 157.566c1.015-2.75.208-5.841-2.021-7.746-7.502-6.409-11.714-17.579-11.556-30.646.155-12.878 4.641-24.765 11.426-30.283 1.751-1.425 2.708-3.606 2.57-5.86-.139-2.253-1.355-4.302-3.269-5.501l-140.491-88.082c-1.114-.699-2.403-1.069-3.718-1.069h-249.142c-13.736 0-24.966 9.926-30.04 26.552-5.328 17.459-2.931 41.396 11.746 52.289-7.107 6.363-12.129 16.563-13.792 28.801-2.541 18.686 3.251 35.779 14.761 43.583l123.882 87.859c4.957 4.163 11.048 6.361 17.64 6.361h265.438c2.932 0 5.552-1.827 6.567-4.577s.208-5.841-2.021-7.746c-7.502-6.409-11.714-17.579-11.556-30.646.155-12.878 4.64-24.765 11.426-30.283l-.012-.015c.953-.774 1.718-1.787 2.163-2.992zm-218.73-46.081h-40.605c-3.866 0-7 3.134-7 7v29.658h-5.671c-3.405 0-6.274-1.046-8.772-3.198-.001 0-.002-.002-.003-.003-8.542-7.362-11.275-26.636-5.848-41.251 1.834-4.941 6.174-13.23 14.624-13.23h251.217c-4.202 8.03-6.659 18.016-6.787 28.544-.132 10.884 2.213 20.922 6.647 29.137h-190.802v-29.658c0-3.866-3.134-7-7-7zm-7 14v40.83l-9.782-5.692c-2.176-1.267-4.865-1.267-7.041 0l-9.782 5.692v-40.83zm194.82-49.024h-238.865l-104.465-74.082h225.17l118.161 74.082zm-381.94-57.443c1.424-4.667 5.594-15.104 14.627-16.483l111.061 78.759c-5.36 3.804-9.704 9.749-12.591 17.525-3.294 8.871-4.437 20.058-2.909 30.568l-102.83-72.929c-.046-.033-.093-.065-.141-.097-8.515-5.731-11.753-22.482-7.218-37.342zm7.218 109.023c-6.948-4.676-10.559-17.068-8.783-30.134 1.426-10.489 5.98-18.848 11.882-22.188l112.37 79.695c-3.99 3.73-7.262 8.816-9.59 15.086-3.294 8.871-4.437 20.058-2.909 30.568l-102.83-72.929c-.046-.033-.093-.065-.141-.097zm133.627 91.783c-3.405 0-6.274-1.046-8.772-3.197-8.544-7.359-11.279-26.637-5.852-41.254 1.834-4.941 6.174-13.23 14.624-13.23h5.671v16.344c0 2.505 1.339 4.819 3.51 6.068 2.171 1.25 4.845 1.242 7.01-.018l16.782-9.765 16.782 9.765c1.088.633 2.304.95 3.521.95 1.205 0 2.409-.311 3.49-.932 2.171-1.249 3.51-3.563 3.51-6.068v-16.344h190.946c-4.203 8.031-6.665 18.015-6.792 28.544-.132 10.884 2.213 20.922 6.647 29.137z"/></svg>