<svg width="780" height="759" viewBox="0 0 780 759" fill="none" xmlns="http://www.w3.org/2000/svg">
<path fill-rule="evenodd" clip-rule="evenodd" d="M228.104 0H235.827C299.72 0 352 52.4267 352 116.584V353H112V116.584C112 52.4267 164.277 0 228.104 0Z" fill="#891652"/>
<path fill-rule="evenodd" clip-rule="evenodd" d="M0 241.681V234.319C0 173.085 49.8297 123 110.834 123L352 353H110.834C49.8324 353 0 302.913 0 241.681Z" fill="#031B4E"/>
<path fill-rule="evenodd" clip-rule="evenodd" d="M551.894 0H544.172C480.278 0 428 52.4267 428 116.584V353H668V116.584C668 52.4267 615.725 0 551.894 0Z" fill="#891652"/>
<path fill-rule="evenodd" clip-rule="evenodd" d="M780 241.681V234.319C780 173.085 730.168 123 669.164 123L428 353H669.164C730.168 353 780 302.913 780 241.681Z" fill="#031B4E"/>
<path fill-rule="evenodd" clip-rule="evenodd" d="M228.104 759H235.827C299.72 759 352 706.656 352 642.747V407H112V642.747C112 706.656 164.277 759 228.104 759Z" fill="#891652"/>
<path fill-rule="evenodd" clip-rule="evenodd" d="M0 517.801V525.201C0 586.117 49.8297 636 110.834 636L352 407H110.834C49.8324 407 0 456.883 0 517.801Z" fill="#031B4E"/>
<path fill-rule="evenodd" clip-rule="evenodd" d="M551.894 759H544.172C480.278 759 428 706.656 428 642.747V407H668V642.747C668 706.656 615.725 759 551.894 759Z" fill="#891652"/>
<path fill-rule="evenodd" clip-rule="evenodd" d="M780 517.801V525.201C780 586.117 730.168 636 669.164 636L428 407H669.164C730.168 407 780 456.883 780 517.801Z" fill="#031B4E"/>
</svg>
