<svg width="141" height="30" viewBox="0 0 141 30" fill="none" xmlns="http://www.w3.org/2000/svg">
<rect width="91" height="30" fill="#002540"/>
<path d="M71 0H114V30H71L87.6136 15L71 0Z" fill="#F50000"/>
<path d="M43.165 10.545L39.7 21.0225H39.46L37.0075 15.0225L34.6 21.0075H34.345L30.85 10.545H32.92L34.7425 16.6125L36.925 10.545H37.18L39.3925 16.59L41.11 10.545H43.165ZM48.1867 13.35C48.9217 13.35 49.4767 13.5875 49.8517 14.0625C50.2317 14.5325 50.4217 15.2 50.4217 16.065V21H48.5017V16.26C48.5017 15.84 48.4017 15.5025 48.2017 15.2475C48.0017 14.9925 47.7267 14.865 47.3767 14.865C47.1417 14.865 46.9192 14.925 46.7092 15.045C46.5042 15.165 46.3392 15.3325 46.2142 15.5475C46.0892 15.7575 46.0267 15.995 46.0267 16.26V21H44.1817V9.57H45.9517V13.35L45.9142 14.475C46.4292 13.725 47.1867 13.35 48.1867 13.35ZM54.2057 21.21C53.7607 21.21 53.3857 21.11 53.0807 20.91C52.7757 20.71 52.5457 20.44 52.3907 20.1C52.2407 19.76 52.1657 19.38 52.1657 18.96C52.1657 18.595 52.2857 18.2325 52.5257 17.8725C52.7707 17.5075 53.2032 17.1975 53.8232 16.9425C54.4432 16.6875 55.2807 16.56 56.3357 16.56V16.215C56.3357 15.805 56.2357 15.4875 56.0357 15.2625C55.8407 15.0375 55.4957 14.925 55.0007 14.925C54.6107 14.925 54.2282 14.9925 53.8532 15.1275C53.4832 15.2575 53.2107 15.42 53.0357 15.615L52.4357 14.175C52.7757 13.945 53.1982 13.75 53.7032 13.59C54.2082 13.43 54.7457 13.35 55.3157 13.35C56.0307 13.35 56.5957 13.46 57.0107 13.68C57.4307 13.9 57.7257 14.21 57.8957 14.61C58.0657 15.01 58.1507 15.505 58.1507 16.095V21H56.5457L56.4107 19.935C56.1457 20.365 55.8307 20.685 55.4657 20.895C55.1057 21.105 54.6857 21.21 54.2057 21.21ZM55.0007 19.77C55.2307 19.77 55.4732 19.6775 55.7282 19.4925C55.9832 19.3075 56.1857 19.075 56.3357 18.795V17.73C56.2657 17.72 56.1457 17.715 55.9757 17.715C55.4707 17.715 55.0182 17.8 54.6182 17.97C54.2232 18.135 54.0257 18.405 54.0257 18.78C54.0257 19.135 54.1032 19.39 54.2582 19.545C54.4182 19.695 54.6657 19.77 55.0007 19.77ZM62.6218 21.225C62.0668 21.225 61.6318 21.13 61.3168 20.94C61.0018 20.75 60.7793 20.465 60.6493 20.085C60.5243 19.7 60.4618 19.195 60.4618 18.57V15.105H59.4868V13.53H60.5368L60.6418 11.955L62.2768 11.25V13.53H64.1218V15.105H62.2768V18.525C62.2768 18.945 62.3343 19.2425 62.4493 19.4175C62.5643 19.5925 62.7368 19.68 62.9668 19.68C63.1718 19.68 63.3943 19.6275 63.6343 19.5225C63.8793 19.4125 64.0818 19.29 64.2418 19.155L64.6018 20.67C64.3818 20.825 64.0643 20.955 63.6493 21.06C63.2393 21.17 62.8968 21.225 62.6218 21.225ZM65.9318 15.165C66.0568 14.56 66.1643 13.825 66.2543 12.96C66.3493 12.09 66.3968 11.285 66.3968 10.545H68.2418C68.2418 11.27 68.1643 12.015 68.0093 12.78C67.8543 13.545 67.6618 14.34 67.4318 15.165H65.9318ZM72.4117 21.135C71.6967 21.135 71.1342 21.0475 70.7242 20.8725C70.3192 20.6925 70.0317 20.5 69.8617 20.295L70.4167 18.87C71.0567 19.4 71.7367 19.665 72.4567 19.665C72.7817 19.665 73.0217 19.6 73.1767 19.47C73.3367 19.335 73.4167 19.17 73.4167 18.975C73.4167 18.765 73.2792 18.5725 73.0042 18.3975C72.7342 18.2175 72.3317 18.01 71.7967 17.775C71.4517 17.625 71.1517 17.4675 70.8967 17.3025C70.6417 17.1375 70.4192 16.915 70.2292 16.635C70.0442 16.35 69.9517 16.005 69.9517 15.6C69.9517 15.15 70.0617 14.7575 70.2817 14.4225C70.5067 14.0875 70.8317 13.83 71.2567 13.65C71.6817 13.47 72.1917 13.38 72.7867 13.38C73.1417 13.38 73.4742 13.42 73.7842 13.5C74.0992 13.575 74.3667 13.67 74.5867 13.785C74.8067 13.895 74.9667 14 75.0667 14.1L74.5567 15.45C74.3267 15.275 74.0617 15.1275 73.7617 15.0075C73.4667 14.8825 73.1617 14.82 72.8467 14.82C72.4717 14.82 72.2067 14.87 72.0517 14.97C71.9017 15.065 71.8267 15.225 71.8267 15.45C71.8267 15.675 71.9367 15.8625 72.1567 16.0125C72.3817 16.1625 72.7267 16.33 73.1917 16.515C73.8617 16.78 74.3767 17.095 74.7367 17.46C75.0967 17.82 75.2767 18.26 75.2767 18.78C75.2767 19.215 75.1767 19.61 74.9767 19.965C74.7817 20.315 74.4692 20.5975 74.0392 20.8125C73.6142 21.0275 73.0717 21.135 72.4117 21.135Z" fill="white"/>
<path d="M18.8835 10.9112C18.8461 10.9112 18.8086 10.8765 18.8086 10.8765C20.3074 8.65578 21.7687 6.43508 23.8296 4.17969L24.579 4.73486C22.8179 7.02495 20.7945 9.00276 18.8835 10.9112Z" fill="white"/>
<path d="M26.6043 12.5416L26.4169 11.8477C25.6301 11.8477 24.8057 12.0905 24.0189 12.264C22.7449 12.5416 21.4709 12.7498 20.2344 13.2009V13.2356C21.5458 13.2356 22.8573 13.0621 24.1687 12.9233C24.9556 12.8192 25.8174 12.7845 26.6043 12.5416Z" fill="white"/>
<path d="M18.4134 4.1388L17.7015 4C17.4017 4.65927 17.3268 5.42263 17.1769 6.1166C16.9896 7.26164 16.7273 8.44139 16.6523 9.58643C16.6523 9.62113 16.6898 9.62113 16.6898 9.58643C17.2144 8.54548 17.5141 7.36574 17.8889 6.25539C18.1137 5.56142 18.376 4.86747 18.4134 4.1388Z" fill="white"/>
<path d="M22.6278 16.6356C23.0774 16.254 23.1149 15.5948 22.7027 15.1784L14.8722 7.1985C14.46 6.74746 13.7481 6.71277 13.2985 7.09442C12.8864 7.44137 12.8115 8.03119 13.1112 8.44753L10.0389 14.3111L7.37879 16.5316C7.04159 16.8438 6.85424 17.2602 6.85424 17.7112L6.89172 18.4398L6.47957 18.7868C5.8801 19.2725 5.84264 20.1746 6.36718 20.7297L7.26639 21.6318C7.82839 22.2216 8.76507 22.2563 9.40201 21.7359L9.81413 21.3889L10.5635 21.493C10.7883 21.5277 11.0131 21.5277 11.2004 21.493L15.3218 25.6911C15.6964 26.0728 16.3334 26.1075 16.7455 25.7605L17.27 25.3095C17.7197 24.9625 17.7196 24.338 17.3075 23.9911C16.5332 23.2509 15.9212 22.4298 15.4716 21.5277L16.0336 21.042C16.4083 20.7297 16.4458 20.2093 16.1086 19.8623C15.7714 19.5154 15.2094 19.4807 14.8347 19.7929C14.7598 19.4922 14.7098 19.1915 14.6848 18.8908L21.0542 16.5663C21.4289 17.0173 22.1407 17.0173 22.6278 16.6356Z" fill="#00203F"/>
<path d="M10.6363 21.1271L9.73705 20.9884C9.68709 20.9884 9.62464 21.0115 9.5497 21.0577L9.06259 21.4741C8.65042 21.8211 7.97595 21.7864 7.60125 21.4047L6.70198 20.4679C6.32728 20.0862 6.32729 19.4616 6.77693 19.1146L7.26403 18.6983C7.31399 18.652 7.33898 18.5942 7.33898 18.5248L7.30149 17.7267C7.26402 17.4144 7.4139 17.1021 7.67619 16.8592L10.1867 14.7773L14.0836 18.7677L11.5731 20.8843C11.4981 20.9536 11.4107 20.9999 11.3108 21.023L8.50054 18.1431C8.4256 18.039 8.27571 18.039 8.1633 18.1084C8.08836 18.2125 8.08836 18.3166 8.1633 18.4207L10.8237 21.1618C10.7862 21.1271 10.7113 21.1271 10.6363 21.1271Z" fill="white"/>
<path d="M11.8889 21.1419L14.2495 19.1641C14.4368 20.4132 14.8865 21.6276 15.6733 22.738L14.212 23.9524L11.6641 21.3154C11.739 21.2691 11.8139 21.2113 11.8889 21.1419Z" fill="#ADF0D1"/>
<path d="M15.0956 24.8942L14.4961 24.2696L15.92 23.0898C16.0948 23.3212 16.2697 23.5409 16.4445 23.7491L15.0956 24.8942Z" fill="white"/>
<path d="M10.5 14.4253L13.4599 8.80469L20.7285 16.2642L14.4715 18.5194L10.5 14.4253Z" fill="#ADF0D1"/>
<path d="M8.9727 20.3001L8.11089 20.994C8.03595 21.0634 8.03595 21.2022 8.11089 21.2716C8.18583 21.3757 8.33571 21.3757 8.41065 21.3063L9.27245 20.6124C9.34739 20.5083 9.34739 20.4042 9.27245 20.3001C9.19751 20.2307 9.04764 20.196 8.9727 20.3001Z" fill="#00203F"/>
<path d="M8.32498 19.6458L7.50063 20.3398C7.42569 20.4092 7.38822 20.548 7.50063 20.6174C7.57557 20.7215 7.72545 20.7214 7.80039 20.652L8.62473 19.9581C8.73714 19.8887 8.73716 19.7499 8.66222 19.6458C8.58728 19.5764 8.43739 19.5764 8.32498 19.6458Z" fill="#00203F"/>
<path d="M7.74685 19.0327L6.92251 19.7267C6.84757 19.7961 6.8101 19.9349 6.92251 20.039C6.99745 20.1084 7.14732 20.1084 7.22226 20.039L8.04661 19.345C8.15902 19.2756 8.15901 19.1368 8.08407 19.0674C8.00913 18.9633 7.85926 18.9633 7.74685 19.0327Z" fill="#00203F"/>
<path d="M13.5992 7.4062C13.8615 7.19803 14.3111 7.19802 14.5359 7.47559L22.3665 15.4555C22.5913 15.6984 22.5913 16.1147 22.329 16.3229C22.0293 16.5658 21.6172 16.5311 21.3549 16.2882C21.0177 15.9413 13.8615 8.62054 13.5618 8.30829C13.2995 8.03072 13.337 7.64907 13.5992 7.4062Z" fill="white"/>
<path d="M16.9722 24.9915L16.4101 25.4773C16.1853 25.6508 15.8481 25.6508 15.6607 25.4426L15.3984 25.1997L16.7473 24.0547C16.8223 24.1241 16.8972 24.1935 16.9722 24.2629C17.197 24.4711 17.197 24.8181 16.9722 24.9915Z" fill="#ADF0D1"/>
<path d="M15.1288 20.1236C15.3161 19.9848 15.5784 19.9848 15.7658 20.1583C15.9156 20.3317 15.9156 20.6093 15.7283 20.7481L15.2786 21.1298C15.1537 20.8522 15.0413 20.5746 14.9414 20.2971L15.1288 20.1236Z" fill="white"/>
<path d="M14.2272 10.8296C14.1523 10.9337 14.1148 11.0378 14.2272 11.1419L18.4238 15.4445C18.4988 15.5486 18.6487 15.5486 18.7236 15.4792C18.836 15.3751 18.836 15.271 18.7611 15.1669L14.5644 10.8643C14.452 10.7602 14.3396 10.7602 14.2272 10.8296Z" fill="#00203F"/>
<path d="M14.5709 12.7395C14.496 12.8089 14.4585 12.9477 14.5709 13.0171L16.3695 14.8908C16.4444 14.9602 16.5943 14.9602 16.6693 14.8908C16.7817 14.8215 16.7817 14.6827 16.7067 14.6133L14.9082 12.7395C14.7958 12.6702 14.6834 12.6702 14.5709 12.7395Z" fill="#00203F"/>
<path d="M14.1991 13.9234C14.0867 14.0275 14.0867 14.1316 14.1616 14.2357L15.0609 15.1378C15.1733 15.2419 15.2857 15.2419 15.3981 15.1725C15.4731 15.1031 15.5105 14.9643 15.3981 14.8602L14.4988 13.9581C14.4239 13.854 14.274 13.854 14.1991 13.9234Z" fill="#00203F"/>
<path d="M127.882 30H94V0H127.882L140.5 15L127.882 30Z" fill="#F50000"/>
<path d="M101.655 10.545V21.21H101.505L96.495 15.495L96.03 14.895L96.105 16.35V21H94.26V10.365H94.425L99.36 16.125L99.885 16.8075L99.81 15.375V10.545H101.655ZM109.892 19.305V21H104.132V10.545H109.592V12.18H106.007V14.625H108.857V16.215H106.007V19.305H109.892ZM122.67 10.545L119.205 21.0225H118.965L116.512 15.0225L114.105 21.0075H113.85L110.355 10.545H112.425L114.247 16.6125L116.43 10.545H116.685L118.897 16.59L120.615 10.545H122.67Z" fill="#002540"/>
</svg>
