<svg xmlns="http://www.w3.org/2000/svg" version="1.1" xmlns:xlink="http://www.w3.org/1999/xlink" width="512" height="512" x="0" y="0" viewBox="0 0 6.827 6.827" style="enable-background:new 0 0 512 512" xml:space="preserve" fill-rule="evenodd" class=""><g><path d="M2.3 3.494a.07.07 0 0 1 .07.077c-.038.38-.137.734-.293 1.052a2.571 2.571 0 0 1-.539.738c1.078-.576 1.517-1.806 1.369-2.8-.093-.623-.464-1.289-1.225-1.289-.657 0-1.192.535-1.192 1.192a1.194 1.194 0 0 0 1.776 1.04.07.07 0 0 1 .035-.01zM1.084 5.695a.07.07 0 0 1-.037-.13c.808-.505 1.085-1.278 1.17-1.88A1.334 1.334 0 0 1 .35 2.464c0-.735.597-1.332 1.332-1.332.366 0 .689.143.932.414.222.248.372.592.432.995.177 1.187-.444 2.694-1.943 3.151a.07.07 0 0 1-.02.003zM5.703 3.494a.07.07 0 0 1 .07.077c-.039.38-.137.734-.293 1.052a2.57 2.57 0 0 1-.54.738c1.078-.576 1.517-1.806 1.369-2.8-.093-.623-.463-1.289-1.225-1.289-.657 0-1.192.535-1.192 1.192a1.193 1.193 0 0 0 1.776 1.04.07.07 0 0 1 .035-.01zM4.485 5.695a.07.07 0 0 1-.038-.13c.809-.505 1.086-1.278 1.17-1.88a1.334 1.334 0 0 1-1.866-1.221c0-.735.598-1.332 1.333-1.332.367 0 .689.143.932.414.222.248.372.592.432.995.177 1.187-.444 2.694-1.943 3.151a.07.07 0 0 1-.02.003z" fill="#d4d4d4" opacity="1" data-original="#000000" class=""></path></g></svg>